<?xml version="1.0" encoding="UTF-8"?>
<svg version="1.1" xmlns="http://www.w3.org/2000/svg" width="256" height="256">
<path d="M0 0 C1.50433594 -0.02416992 1.50433594 -0.02416992 3.0390625 -0.04882812 C11.4324912 -0.05432121 17.58214359 1.59417212 24.625 6.375 C25.388125 6.88160156 26.15125 7.38820313 26.9375 7.91015625 C27.494375 8.37292969 28.05125 8.83570313 28.625 9.3125 C28.625 9.9725 28.625 10.6325 28.625 11.3125 C30.605 12.3025 30.605 12.3025 32.625 13.3125 C32.625 13.9725 32.625 14.6325 32.625 15.3125 C33.285 15.3125 33.945 15.3125 34.625 15.3125 C43.66806979 26.23417084 49.55628965 38.84741534 53.32421875 52.43359375 C53.7016774 53.77531898 53.7016774 53.77531898 54.08676147 55.14414978 C57.37207512 66.88424736 60.54402427 78.65580856 63.69384766 90.43286133 C64.39778192 93.06376874 65.10560003 95.69358287 65.81689453 98.32250977 C69.93578026 113.55073584 73.96289163 128.75049481 76.625 144.3125 C76.91370972 145.97007324 76.91370972 145.97007324 77.20825195 147.66113281 C77.76588556 152.54687866 77.82702047 157.38664255 77.86328125 162.30078125 C77.871353 163.35798874 77.87942474 164.41519623 77.88774109 165.50444031 C77.90153451 167.7409809 77.91227773 169.97754212 77.92016602 172.21411133 C77.93162225 174.46840727 77.95197153 176.72267748 77.98168945 178.97680664 C78.31982398 204.68069809 74.79667806 229.72046019 56.6484375 249.3984375 C48.12152073 257.46443985 38.34912332 256.72719137 27.33203125 256.59375 C21.09776226 256.39222199 16.14886516 255.22282064 10.625 252.3125 C9.82964844 251.961875 9.03429687 251.61125 8.21484375 251.25 C1.74721188 248.29805392 -3.92426277 244.31784101 -9.6875 240.203125 C-12.18997674 238.34298647 -12.18997674 238.34298647 -14.375 237.3125 C-14.375 236.6525 -14.375 235.9925 -14.375 235.3125 C-15.695 234.9825 -17.015 234.6525 -18.375 234.3125 C-18.375 233.6525 -18.375 232.9925 -18.375 232.3125 C-18.94734375 232.044375 -19.5196875 231.77625 -20.109375 231.5 C-22.45384634 230.27117364 -24.49904938 228.88727824 -26.625 227.3125 C-27.33140625 226.796875 -28.0378125 226.28125 -28.765625 225.75 C-29.29671875 225.275625 -29.8278125 224.80125 -30.375 224.3125 C-30.375 223.6525 -30.375 222.9925 -30.375 222.3125 C-30.9525 222.044375 -31.53 221.77625 -32.125 221.5 C-34.43050043 220.28320811 -36.39556192 219.00916121 -38.375 217.3125 C-38.375 216.6525 -38.375 215.9925 -38.375 215.3125 C-38.95378906 215.06242188 -39.53257812 214.81234375 -40.12890625 214.5546875 C-42.67370619 213.14730249 -44.30948831 211.53967069 -46.3125 209.4375 C-48.5252124 207.15910411 -50.63442129 205.10614215 -53.125 203.125 C-55.63992414 201.09908889 -57.41057053 198.86625831 -59.375 196.3125 C-60.36419013 195.30180574 -61.36220841 194.29954265 -62.375 193.3125 C-62.69662109 193.88581055 -63.01824219 194.45912109 -63.34960938 195.04980469 C-69.34886197 205.71751989 -75.30990203 216.30607463 -82.375 226.3125 C-83.05304688 227.29863281 -83.73109375 228.28476563 -84.4296875 229.30078125 C-88.03573117 234.43769251 -91.37531131 238.53495743 -96.375 242.3125 C-97.24125 243.22 -98.1075 244.1275 -99 245.0625 C-101.27704267 247.21969832 -102.32243703 247.97332634 -105.375 248.3125 C-105.375 248.9725 -105.375 249.6325 -105.375 250.3125 C-106.76778017 250.96489158 -108.16439212 251.60910552 -109.5625 252.25 C-110.33980469 252.60964844 -111.11710937 252.96929687 -111.91796875 253.33984375 C-120.9663776 256.92180528 -131.52316559 256.18286307 -140.3984375 252.46484375 C-147.79512706 248.96487762 -153.79080942 244.53744586 -158.8125 238.0625 C-159.51463623 237.15721558 -159.51463623 237.15721558 -160.23095703 236.23364258 C-171.60646896 220.97366732 -178.4279572 200.88080538 -178.61328125 181.90625 C-178.621353 181.10449341 -178.62942474 180.30273682 -178.63774109 179.47668457 C-178.65152227 177.78232951 -178.66227088 176.08794739 -178.67016602 174.39355469 C-178.68162638 172.68708973 -178.7019828 170.98065892 -178.73168945 169.27441406 C-179.00317113 153.64070937 -177.5652565 137.32987958 -166.421875 125.18359375 C-158.70888709 118.13298075 -151.62226055 116.43918452 -141.3984375 116.76171875 C-130.41640761 117.61128824 -119.13541591 122.66765222 -109.87109375 128.46484375 C-108.37157177 129.47681842 -108.37157177 129.47681842 -106.375 129.3125 C-95.1078873 115.82241641 -86.43452185 98.68970946 -78.6875 82.9375 C-69.45372516 64.24744973 -59.70551891 46.15716007 -47.375 29.3125 C-46.83488281 28.55485352 -46.29476562 27.79720703 -45.73828125 27.01660156 C-44.93970703 25.91396973 -44.93970703 25.91396973 -44.125 24.7890625 C-43.64546875 24.12213379 -43.1659375 23.45520508 -42.671875 22.76806641 C-42.24390625 22.28772949 -41.8159375 21.80739258 -41.375 21.3125 C-40.715 21.3125 -40.055 21.3125 -39.375 21.3125 C-38.98634766 20.41724609 -38.98634766 20.41724609 -38.58984375 19.50390625 C-37.28486856 17.14991563 -36.02025787 15.92964344 -33.9375 14.25 C-32.18770768 12.8252231 -30.51048712 11.45468703 -28.953125 9.8203125 C-26.98828595 7.94301578 -24.89113935 6.64861442 -22.5625 5.25 C-21.73105469 4.74339844 -20.89960938 4.23679687 -20.04296875 3.71484375 C-13.33494316 0.18895622 -7.44256816 -0.02373268 0 0 Z M-1.375 81.3125 C-1.375 81.9725 -1.375 82.6325 -1.375 83.3125 C-2.365 83.6425 -3.355 83.9725 -4.375 84.3125 C-6.74510654 86.93449993 -8.67640147 89.90978414 -10.6875 92.8125 C-11.60921997 94.13882446 -11.60921997 94.13882446 -12.54956055 95.49194336 C-23.8772919 112.1168049 -33.11353629 129.99928814 -41.375 148.3125 C-41.9215625 149.50488281 -42.468125 150.69726562 -43.03125 151.92578125 C-44.15563557 154.38381303 -45.27156334 156.84501602 -46.375 159.3125 C-36.20163906 164.70906739 -25.94957638 165.5974853 -14.625 165.6875 C-13.18846069 165.70816528 -13.18846069 165.70816528 -11.72290039 165.72924805 C1.34418407 165.64476987 13.49008824 160.52365536 23.625 152.3125 C23.625 151.6525 23.625 150.9925 23.625 150.3125 C24.615 149.9825 25.605 149.6525 26.625 149.3125 C26.625 148.6525 26.625 147.9925 26.625 147.3125 C27.615 146.9825 28.605 146.6525 29.625 146.3125 C42.67793136 132.53595198 49.73859783 114.86461715 52.625 96.3125 C52.76421875 95.48105469 52.9034375 94.64960937 53.046875 93.79296875 C53.5818854 87.91814301 51.28092059 84.26152721 47.7578125 79.67578125 C44.41589208 75.97273756 40.76256002 73.07599092 36.625 70.3125 C35.26375 69.3534375 35.26375 69.3534375 33.875 68.375 C19.07136075 63.53534871 8.50708099 70.81149953 -1.375 81.3125 Z M-153.375 127.3125 C-154.89481971 130.52340984 -154.89481971 130.52340984 -154.375 134.3125 C-151.87901982 139.47792616 -148.0571581 143.42015629 -142.7734375 145.6875 C-134.08503211 147.95157958 -126.07095985 146.76700906 -118.375 142.3125 C-118.375 141.6525 -118.375 140.9925 -118.375 140.3125 C-117.715 139.9825 -117.055 139.6525 -116.375 139.3125 C-117.035 139.3125 -117.695 139.3125 -118.375 139.3125 C-118.87 137.8275 -118.87 137.8275 -119.375 136.3125 C-127.43798404 130.17458828 -143.79668109 119.20776861 -153.375 127.3125 Z M44.625 130.3125 C45.625 132.3125 45.625 132.3125 45.625 132.3125 Z M-102.375 131.3125 C-101.375 133.3125 -101.375 133.3125 -101.375 133.3125 Z M43.625 132.3125 C44.625 134.3125 44.625 134.3125 44.625 134.3125 Z M42.625 134.3125 C43.625 136.3125 43.625 136.3125 43.625 136.3125 Z M40.625 137.3125 C41.625 139.3125 41.625 139.3125 41.625 139.3125 Z M39.625 139.3125 C39.625 142.3125 39.625 142.3125 39.625 142.3125 Z M37.625 142.3125 C37.625 145.3125 37.625 145.3125 37.625 145.3125 Z M43.625 142.3125 C44.625 144.3125 44.625 144.3125 44.625 144.3125 Z M-114.375 143.3125 C-114.375 143.9725 -114.375 144.6325 -114.375 145.3125 C-115.10074219 145.59867188 -115.82648438 145.88484375 -116.57421875 146.1796875 C-118.31803023 146.88499479 -120.05223021 147.61520975 -121.76953125 148.3828125 C-130.58699102 152.22887734 -137.15256868 151.70350071 -146.375 149.3125 C-144.32266315 151.5602975 -143.36832739 152.3147242 -140.375 153.3125 C-138.06409583 153.4079687 -135.75037025 153.44235387 -133.4375 153.4375 C-131.59865234 153.44136719 -131.59865234 153.44136719 -129.72265625 153.4453125 C-127.04737569 153.33917535 -124.90572572 153.11167654 -122.375 152.3125 C-122.375 151.6525 -122.375 150.9925 -122.375 150.3125 C-120.725 149.9825 -119.075 149.6525 -117.375 149.3125 C-117.375 148.6525 -117.375 147.9925 -117.375 147.3125 C-116.570625 147.02375 -115.76625 146.735 -114.9375 146.4375 C-112.2423532 145.57987432 -112.2423532 145.57987432 -111.375 143.3125 C-112.365 143.3125 -113.355 143.3125 -114.375 143.3125 Z M42.625 144.3125 C43.625 146.3125 43.625 146.3125 43.625 146.3125 Z M47.625 145.3125 C48.625 147.3125 48.625 147.3125 48.625 147.3125 Z M-109.375 147.3125 C-109.045 147.9725 -108.715 148.6325 -108.375 149.3125 C-108.045 148.6525 -107.715 147.9925 -107.375 147.3125 C-108.035 147.3125 -108.695 147.3125 -109.375 147.3125 Z M33.625 147.3125 C33.07070312 147.87839844 32.51640625 148.44429687 31.9453125 149.02734375 C30.85863281 150.12755859 30.85863281 150.12755859 29.75 151.25 C29.03070313 151.98089844 28.31140625 152.71179688 27.5703125 153.46484375 C25.625 155.3125 25.625 155.3125 23.625 156.3125 C23.625 156.9725 23.625 157.6325 23.625 158.3125 C22.635 158.6528125 22.635 158.6528125 21.625 159 C19.10745862 160.10142436 17.09377895 161.25614475 14.8125 162.75 C10.89749641 165.27051659 7.02792075 166.81865189 2.625 168.3125 C2.625 168.6425 2.625 168.9725 2.625 169.3125 C9.79207877 168.98672369 15.39427124 165.65806372 21.625 162.3125 C21.625 161.6525 21.625 160.9925 21.625 160.3125 C22.181875 160.085625 22.73875 159.85875 23.3125 159.625 C26.27753447 157.9421426 28.27853689 155.77628626 30.625 153.3125 C31.95833333 151.97916667 33.29166667 150.64583333 34.625 149.3125 C34.295 148.6525 33.965 147.9925 33.625 147.3125 Z M40.625 147.3125 C41.625 149.3125 41.625 149.3125 41.625 149.3125 Z M46.625 147.3125 C47.625 149.3125 47.625 149.3125 47.625 149.3125 Z M-115 152.125 C-122.32578795 157.68839013 -129.15948791 159.37317927 -138.375 158.3125 C-139.24769531 157.95542969 -140.12039062 157.59835938 -141.01953125 157.23046875 C-143.4663564 155.98788189 -143.4663564 155.98788189 -146.375 157.3125 C-141.76435047 160.00443202 -137.89353689 160.85791842 -132.625 160.8125 C-131.92632812 160.81185547 -131.22765625 160.81121094 -130.5078125 160.81054688 C-124.29387032 160.63284189 -119.54640567 158.79325382 -114.375 155.3125 C-114.375 154.6525 -114.375 153.9925 -114.375 153.3125 C-113.735625 153.02375 -113.09625 152.735 -112.4375 152.4375 C-110.22293921 151.48426549 -110.22293921 151.48426549 -109.375 149.3125 C-112.09771842 149.3125 -112.90967321 150.41359699 -115 152.125 Z M38.625 150.3125 C37.85414063 151.16714844 37.08328125 152.02179688 36.2890625 152.90234375 C35.27619765 154.01837076 34.26316827 155.13424844 33.25 156.25 C32.74210937 156.81396484 32.23421875 157.37792969 31.7109375 157.95898438 C27.8515625 162.19921875 27.8515625 162.19921875 25.625 163.3125 C25.625 163.9725 25.625 164.6325 25.625 165.3125 C24.305 165.6425 22.985 165.9725 21.625 166.3125 C21.625 166.9725 21.625 167.6325 21.625 168.3125 C20.820625 168.56 20.01625 168.8075 19.1875 169.0625 C16.38283776 170.04659202 13.81015811 171.12556095 11.125 172.375 C7.63053819 173.96554184 4.47600921 174.9175247 0.625 175.3125 C0.625 175.6425 0.625 175.9725 0.625 176.3125 C6.20330016 176.43719099 6.20330016 176.43719099 11.625 175.3125 C11.625 174.6525 11.625 173.9925 11.625 173.3125 C12.50414062 173.22097656 13.38328125 173.12945312 14.2890625 173.03515625 C24.42945738 170.83846649 33.69368735 160.48613817 39.625 152.3125 C39.13 151.3225 39.13 151.3225 38.625 150.3125 Z M44.625 150.3125 C45.625 152.3125 45.625 152.3125 45.625 152.3125 Z M43.625 152.3125 C42.61921411 153.59966647 41.62053202 154.89238658 40.625 156.1875 C40.068125 156.90679687 39.51125 157.62609375 38.9375 158.3671875 C37.43856623 160.1977085 37.43856623 160.1977085 37.625 162.3125 C36.635 162.6425 35.645 162.9725 34.625 163.3125 C34.109375 164.01375 33.59375 164.715 33.0625 165.4375 C26.02940288 173.73294789 15.8195882 178.17570363 5.625 181.3125 C5.625 181.6425 5.625 181.9725 5.625 182.3125 C11.62833124 182.9444296 16.25904795 180.68794123 21.625 178.3125 C21.625 177.6525 21.625 176.9925 21.625 176.3125 C22.17800781 176.23773438 22.73101562 176.16296875 23.30078125 176.0859375 C26.48704098 175.02563594 28.341241 173.19339078 30.8125 170.9375 C31.69292969 170.14601562 32.57335937 169.35453125 33.48046875 168.5390625 C35.82768993 166.42168408 35.82768993 166.42168408 36.625 163.3125 C37.285 163.3125 37.945 163.3125 38.625 163.3125 C40.21469247 161.29458664 40.21469247 161.29458664 41.75 158.8125 C42.28882813 157.9771875 42.82765625 157.141875 43.3828125 156.28125 C43.79273438 155.6315625 44.20265625 154.981875 44.625 154.3125 C44.13 153.3225 44.13 153.3225 43.625 152.3125 Z M-107.375 153.3125 C-107.045 153.9725 -106.715 154.6325 -106.375 155.3125 C-106.045 154.6525 -105.715 153.9925 -105.375 153.3125 C-106.035 153.3125 -106.695 153.3125 -107.375 153.3125 Z M-101.375 155.3125 C-101.375 156.3025 -101.375 157.2925 -101.375 158.3125 C-100.715 157.3225 -100.055 156.3325 -99.375 155.3125 C-100.035 155.3125 -100.695 155.3125 -101.375 155.3125 Z M47.625 155.3125 C48.625 157.3125 48.625 157.3125 48.625 157.3125 Z M-110.375 156.3125 C-112.01176257 158.2725281 -112.01176257 158.2725281 -113.375 160.3125 C-110.25302522 159.0035428 -110.25302522 159.0035428 -108.375 156.3125 C-109.035 156.3125 -109.695 156.3125 -110.375 156.3125 Z M46.625 157.3125 C47.625 159.3125 47.625 159.3125 47.625 159.3125 Z M-121.375 163.3125 C-121.375 163.9725 -121.375 164.6325 -121.375 165.3125 C-128.635 165.3125 -135.895 165.3125 -143.375 165.3125 C-137.54752462 169.19748359 -132.27251911 168.79428248 -125.375 168.3125 C-122.46164793 167.57013473 -120.10867864 166.59893701 -117.375 165.3125 C-117.375 164.6525 -117.375 163.9925 -117.375 163.3125 C-116.055 162.9825 -114.735 162.6525 -113.375 162.3125 C-113.375 161.6525 -113.375 160.9925 -113.375 160.3125 C-116.45509879 160.3125 -118.68635136 161.9097268 -121.375 163.3125 Z M-105.375 160.3125 C-106.365 161.7975 -106.365 161.7975 -107.375 163.3125 C-106.385 162.9825 -105.395 162.6525 -104.375 162.3125 C-104.705 161.6525 -105.035 160.9925 -105.375 160.3125 Z M-98.375 160.3125 C-99.365 161.3025 -100.355 162.2925 -101.375 163.3125 C-101.045 163.9725 -100.715 164.6325 -100.375 165.3125 C-99.385 164.3225 -98.395 163.3325 -97.375 162.3125 C-97.705 161.6525 -98.035 160.9925 -98.375 160.3125 Z M44.625 160.3125 C45.625 162.3125 45.625 162.3125 45.625 162.3125 Z M50.625 160.3125 C51.625 162.3125 51.625 162.3125 51.625 162.3125 Z M-146.375 163.3125 C-146.045 163.9725 -145.715 164.6325 -145.375 165.3125 C-144.715 164.9825 -144.055 164.6525 -143.375 164.3125 C-144.365 163.9825 -145.355 163.6525 -146.375 163.3125 Z M-109.375 163.3125 C-109.375 163.9725 -109.375 164.6325 -109.375 165.3125 C-110.1484375 165.68375 -110.1484375 165.68375 -110.9375 166.0625 C-113.55906477 167.40689219 -116.07067204 168.89057521 -118.59375 170.41015625 C-121.98066381 172.12589548 -125.16183572 172.43556192 -128.921875 172.41015625 C-129.76621094 172.40693359 -130.61054688 172.40371094 -131.48046875 172.40039062 C-132.35316406 172.39201172 -133.22585937 172.38363281 -134.125 172.375 C-135.45724609 172.36823242 -135.45724609 172.36823242 -136.81640625 172.36132812 C-139.00267329 172.349574 -141.18880179 172.33314249 -143.375 172.3125 C-138.8160406 176.27356308 -134.23376192 176.3125 -128.375 176.3125 C-120.31357268 174.80952202 -113.28615003 170.92809253 -107.375 165.3125 C-107.375 164.6525 -107.375 163.9925 -107.375 163.3125 C-108.035 163.3125 -108.695 163.3125 -109.375 163.3125 Z M-94.375 163.3125 C-93.375 165.3125 -93.375 165.3125 -93.375 165.3125 Z M42.625 163.3125 C43.625 165.3125 43.625 165.3125 43.625 165.3125 Z M48.625 164.3125 C48.625 167.3125 48.625 167.3125 48.625 167.3125 Z M40.625 166.3125 C40.026875 167.09625 39.42875 167.88 38.8125 168.6875 C36.625 171.3125 36.625 171.3125 33.625 173.3125 C33.625 173.9725 33.625 174.6325 33.625 175.3125 C32.635 175.6425 31.645 175.9725 30.625 176.3125 C30.625 176.9725 30.625 177.6325 30.625 178.3125 C29.903125 178.5909375 29.18125 178.869375 28.4375 179.15625 C25.75458307 180.25922696 23.20552344 181.48998174 20.625 182.8125 C17.34396428 184.49403081 14.06559911 185.98541177 10.625 187.3125 C10.625 187.6425 10.625 187.9725 10.625 188.3125 C18.31369485 188.84371892 24.9109577 184.47286409 30.74609375 179.828125 C34.75225571 176.23162369 38.5202156 172.73045551 41.625 168.3125 C41.295 167.6525 40.965 166.9925 40.625 166.3125 Z M52.625 166.3125 C53.625 168.3125 53.625 168.3125 53.625 168.3125 Z M-104.375 167.3125 C-105.365 168.7975 -105.365 168.7975 -106.375 170.3125 C-105.385 169.9825 -104.395 169.6525 -103.375 169.3125 C-103.705 168.6525 -104.035 167.9925 -104.375 167.3125 Z M46.625 167.3125 C47.625 169.3125 47.625 169.3125 47.625 169.3125 Z M-4.375 169.3125 C-4.375 169.6425 -4.375 169.9725 -4.375 170.3125 C-2.065 170.3125 0.245 170.3125 2.625 170.3125 C2.625 169.9825 2.625 169.6525 2.625 169.3125 C0.315 169.3125 -1.995 169.3125 -4.375 169.3125 Z M-146.375 170.3125 C-146.375 170.9725 -146.375 171.6325 -146.375 172.3125 C-145.385 171.9825 -144.395 171.6525 -143.375 171.3125 C-144.365 170.9825 -145.355 170.6525 -146.375 170.3125 Z M-107.375 170.3125 C-109.4149719 171.67573743 -109.4149719 171.67573743 -111.375 173.3125 C-111.375 173.9725 -111.375 174.6325 -111.375 175.3125 C-110.715 175.3125 -110.055 175.3125 -109.375 175.3125 C-109.375 174.6525 -109.375 173.9925 -109.375 173.3125 C-108.385 172.9825 -107.395 172.6525 -106.375 172.3125 C-106.705 171.6525 -107.035 170.9925 -107.375 170.3125 Z M-12.375 170.3125 C-12.375 170.6425 -12.375 170.9725 -12.375 171.3125 C-9.735 171.3125 -7.095 171.3125 -4.375 171.3125 C-4.375 170.9825 -4.375 170.6525 -4.375 170.3125 C-7.015 170.3125 -9.655 170.3125 -12.375 170.3125 Z M44.625 170.3125 C43.8 171.26125 42.975 172.21 42.125 173.1875 C41.6609375 173.72117188 41.196875 174.25484375 40.71875 174.8046875 C39.42927542 176.27186421 39.42927542 176.27186421 39.625 178.3125 C38.635 178.6425 37.645 178.9725 36.625 179.3125 C35.92375 180.034375 35.2225 180.75625 34.5 181.5 C26.41808353 189.70041964 17.56767082 192.02997971 6.625 194.3125 C6.625 194.6425 6.625 194.9725 6.625 195.3125 C17.32573346 196.0028699 26.41587302 192.2525832 34.625 185.3125 C34.625 184.6525 34.625 183.9925 34.625 183.3125 C35.615 182.9825 36.605 182.6525 37.625 182.3125 C39.08461383 180.67985356 40.47406752 178.98337977 41.8125 177.25 C42.52792969 176.33089844 43.24335938 175.41179687 43.98046875 174.46484375 C44.79451172 173.39943359 44.79451172 173.39943359 45.625 172.3125 C45.13 171.3225 45.13 171.3225 44.625 170.3125 Z M50.625 170.3125 C51.625 172.3125 51.625 172.3125 51.625 172.3125 Z M-102.375 173.3125 C-101.375 175.3125 -101.375 175.3125 -101.375 175.3125 Z M-95.375 173.3125 C-94.375 175.3125 -94.375 175.3125 -94.375 175.3125 Z M-89.375 173.3125 C-88.375 175.3125 -88.375 175.3125 -88.375 175.3125 Z M48.625 174.3125 C47.32876621 175.89209653 46.03818673 177.47633413 44.75 179.0625 C44.03070313 179.94421875 43.31140625 180.8259375 42.5703125 181.734375 C40.93488227 183.90181266 39.81523056 185.89942982 38.625 188.3125 C36.8125 189.3125 36.8125 189.3125 34.625 190.3125 C33.92375 190.93125 33.2225 191.55 32.5 192.1875 C26.96650272 196.27747625 20.14260179 198.25430996 13.625 200.3125 C13.625 200.6425 13.625 200.9725 13.625 201.3125 C20.80751586 202.04916829 26.41095277 198.43358255 32.625 195.3125 C32.625 194.6525 32.625 193.9925 32.625 193.3125 C34.275 192.6525 35.925 191.9925 37.625 191.3125 C37.625 190.6525 37.625 189.9925 37.625 189.3125 C38.615 188.9825 39.605 188.6525 40.625 188.3125 C42.27969197 186.32058238 43.80839146 184.34903505 45.3125 182.25 C45.72822266 181.68216797 46.14394531 181.11433594 46.57226562 180.52929688 C47.59640082 179.12846827 48.61157535 177.72109652 49.625 176.3125 C49.13 175.3225 49.13 175.3225 48.625 174.3125 Z M-104.375 175.3125 C-104.375 176.3025 -104.375 177.2925 -104.375 178.3125 C-103.715 177.3225 -103.055 176.3325 -102.375 175.3125 C-103.035 175.3125 -103.695 175.3125 -104.375 175.3125 Z M-148.375 176.3125 C-147.385 177.7975 -147.385 177.7975 -146.375 179.3125 C-145.385 178.9825 -144.395 178.6525 -143.375 178.3125 C-145.85 177.3225 -145.85 177.3225 -148.375 176.3125 Z M-91.375 176.3125 C-90.375 178.3125 -90.375 178.3125 -90.375 178.3125 Z M-14.375 176.3125 C-14.375 176.6425 -14.375 176.9725 -14.375 177.3125 C-9.425 177.3125 -4.475 177.3125 0.625 177.3125 C0.625 176.9825 0.625 176.6525 0.625 176.3125 C-4.325 176.3125 -9.275 176.3125 -14.375 176.3125 Z M-98.375 177.3125 C-99.035 178.6325 -99.695 179.9525 -100.375 181.3125 C-99.385 180.6525 -98.395 179.9925 -97.375 179.3125 C-97.705 178.6525 -98.035 177.9925 -98.375 177.3125 Z M52.625 177.3125 C53.625 179.3125 53.625 179.3125 53.625 179.3125 Z M-109.4375 180 C-110.406875 180.763125 -111.37625 181.52625 -112.375 182.3125 C-112.93445313 182.76753906 -113.49390625 183.22257813 -114.0703125 183.69140625 C-121.51285825 188.81362891 -130.682901 188.16625584 -139.375 187.3125 C-140.71447317 187.00476552 -142.05018754 186.67823329 -143.375 186.3125 C-143.375 186.9725 -143.375 187.6325 -143.375 188.3125 C-134.00936187 191.01412638 -126.51274832 192.26463908 -117.375 188.3125 C-112.59080993 185.56578171 -108.45815306 182.93722959 -105.375 178.3125 C-107.56116018 178.10142074 -107.56116018 178.10142074 -109.4375 180 Z M-117.8125 177.25 C-126.26918684 181.13701092 -134.29544995 180.92664223 -143.375 179.3125 C-140.92248126 182.28133848 -139.18015963 182.90769578 -135.375 183.3125 C-127.920964 183.97567046 -121.99625024 182.88894174 -115.375 179.3125 C-112.82437334 177.27419749 -112.82437334 177.27419749 -111.375 175.3125 C-113.93251672 175.3125 -115.49329779 176.17989192 -117.8125 177.25 Z M50.625 180.3125 C51.625 182.3125 51.625 182.3125 51.625 182.3125 Z M-103.375 182.3125 C-103.375 183.3025 -103.375 184.2925 -103.375 185.3125 C-102.715 184.3225 -102.055 183.3325 -101.375 182.3125 C-102.035 182.3125 -102.695 182.3125 -103.375 182.3125 Z M-11.375 182.3125 C-11.375 182.6425 -11.375 182.9725 -11.375 183.3125 C-5.765 183.3125 -0.155 183.3125 5.625 183.3125 C5.625 182.9825 5.625 182.6525 5.625 182.3125 C0.015 182.3125 -5.595 182.3125 -11.375 182.3125 Z M-148.375 183.3125 C-147.385 184.7975 -147.385 184.7975 -146.375 186.3125 C-145.385 185.9825 -144.395 185.6525 -143.375 185.3125 C-145.85 184.3225 -145.85 184.3225 -148.375 183.3125 Z M-96.375 183.3125 C-97.365 184.3025 -98.355 185.2925 -99.375 186.3125 C-99.045 186.9725 -98.715 187.6325 -98.375 188.3125 C-97.385 187.3225 -96.395 186.3325 -95.375 185.3125 C-95.705 184.6525 -96.035 183.9925 -96.375 183.3125 Z M48.625 183.3125 C49.625 185.3125 49.625 185.3125 49.625 185.3125 Z M-110.125 188.125 C-118.05899905 194.12146274 -125.72402506 196.32932325 -135.78515625 194.9921875 C-137.67582132 194.53318211 -139.52925616 193.92774795 -141.375 193.3125 C-142.53 192.94125 -143.685 192.57 -144.875 192.1875 C-146.1125 191.754375 -146.1125 191.754375 -147.375 191.3125 C-143.36222485 196.16126998 -138.58871844 197.9495903 -132.50390625 198.63671875 C-122.9425192 198.98994197 -115.93246893 196.11241802 -108.375 190.3125 C-106.05222584 187.7033613 -106.05222584 187.7033613 -104.375 185.3125 C-107.10851968 185.3125 -108.00325364 186.43500435 -110.125 188.125 Z M47.625 185.3125 C47.625 188.3125 47.625 188.3125 47.625 188.3125 Z M53.625 185.3125 C54.625 187.3125 54.625 187.3125 54.625 187.3125 Z M-152.375 186.3125 C-151.375 188.3125 -151.375 188.3125 -151.375 188.3125 Z M-92.375 186.3125 C-91.375 188.3125 -91.375 188.3125 -91.375 188.3125 Z M-86.375 186.3125 C-85.375 188.3125 -85.375 188.3125 -85.375 188.3125 Z M52.625 187.3125 C53.625 189.3125 53.625 189.3125 53.625 189.3125 Z M-8.375 188.3125 C-8.375 188.6425 -8.375 188.9725 -8.375 189.3125 C-2.105 189.3125 4.165 189.3125 10.625 189.3125 C10.625 188.9825 10.625 188.6525 10.625 188.3125 C4.355 188.3125 -1.915 188.3125 -8.375 188.3125 Z M-88.375 189.3125 C-87.375 191.3125 -87.375 191.3125 -87.375 191.3125 Z M44.625 189.3125 C43.86316406 190.10914063 43.86316406 190.10914063 43.0859375 190.921875 C39.18143889 194.92873874 35.48345609 198.46079751 30.625 201.3125 C29.7896875 201.8075 28.954375 202.3025 28.09375 202.8125 C23.54410944 204.77991213 19.13918994 205.36182471 14.25 206 C12.85974609 206.19432617 12.85974609 206.19432617 11.44140625 206.39257812 C9.17039055 206.70864732 6.89850963 207.01499867 4.625 207.3125 C4.625 207.6425 4.625 207.9725 4.625 208.3125 C20.37033433 208.87261071 30.83139343 206.00902689 42.625 195.3125 C44.4376505 193.15029383 44.4376505 193.15029383 45.625 191.3125 C45.13 190.3225 45.13 190.3225 44.625 189.3125 Z M-102.375 190.3125 C-102.705 190.9725 -103.035 191.6325 -103.375 192.3125 C-102.715 192.3125 -102.055 192.3125 -101.375 192.3125 C-101.705 191.6525 -102.035 190.9925 -102.375 190.3125 Z M50.625 190.3125 C51.625 192.3125 51.625 192.3125 51.625 192.3125 Z M56.625 190.3125 C57.625 192.3125 57.625 192.3125 57.625 192.3125 Z M-105.375 192.3125 C-105.705 193.3025 -106.035 194.2925 -106.375 195.3125 C-105.715 195.3125 -105.055 195.3125 -104.375 195.3125 C-104.045 194.3225 -103.715 193.3325 -103.375 192.3125 C-104.035 192.3125 -104.695 192.3125 -105.375 192.3125 Z M-97.375 192.3125 C-97.045 192.9725 -96.715 193.6325 -96.375 194.3125 C-96.045 193.6525 -95.715 192.9925 -95.375 192.3125 C-96.035 192.3125 -96.695 192.3125 -97.375 192.3125 Z M48.625 193.3125 C47.71621094 194.39917969 47.71621094 194.39917969 46.7890625 195.5078125 C35.34763045 208.70946486 24.80873936 212.07108917 7.625 213.3125 C7.625 213.6425 7.625 213.9725 7.625 214.3125 C17.13593987 214.73730625 24.99145814 214.89697766 33.625 210.3125 C34.95833333 209.64583333 36.29166667 208.97916667 37.625 208.3125 C37.625 207.6525 37.625 206.9925 37.625 206.3125 C38.19734375 206.07789063 38.7696875 205.84328125 39.359375 205.6015625 C42.14184301 204.01843415 43.79570214 202.1133475 45.875 199.6875 C46.93460938 198.46160156 46.93460938 198.46160156 48.015625 197.2109375 C48.54671875 196.58445313 49.0778125 195.95796875 49.625 195.3125 C49.13 194.3225 49.13 194.3225 48.625 193.3125 Z M-5.375 194.3125 C-1.375 195.3125 -1.375 195.3125 -1.375 195.3125 Z M-110.375 196.3125 C-110.375 196.9725 -110.375 197.6325 -110.375 198.3125 C-112.025 198.6425 -113.675 198.9725 -115.375 199.3125 C-115.375 199.9725 -115.375 200.6325 -115.375 201.3125 C-124.89676455 202.54111478 -133.85323545 202.54111478 -143.375 201.3125 C-136.42856269 205.9434582 -129.58429903 206.56227388 -121.375 205.3125 C-115.25398473 203.23620848 -109.9781397 200.83731421 -106.375 195.3125 C-108.4495356 195.1634288 -108.4495356 195.1634288 -110.375 196.3125 Z M53.625 195.3125 C54.625 197.3125 54.625 197.3125 54.625 197.3125 Z M-149.375 196.3125 C-149.375 196.9725 -149.375 197.6325 -149.375 198.3125 C-148.715 197.9825 -148.055 197.6525 -147.375 197.3125 C-148.035 196.9825 -148.695 196.6525 -149.375 196.3125 Z M-100.375 196.3125 C-101.365 197.7975 -101.365 197.7975 -102.375 199.3125 C-101.385 198.9825 -100.395 198.6525 -99.375 198.3125 C-99.705 197.6525 -100.035 196.9925 -100.375 196.3125 Z M-93.375 196.3125 C-92.375 198.3125 -92.375 198.3125 -92.375 198.3125 Z M52.625 197.3125 C51.81095703 198.36050781 51.81095703 198.36050781 50.98046875 199.4296875 C50.26503906 200.33976563 49.54960937 201.24984375 48.8125 202.1875 C48.10480469 203.09242188 47.39710938 203.99734375 46.66796875 204.9296875 C44.625 207.3125 44.625 207.3125 41.625 209.3125 C41.625 209.9725 41.625 210.6325 41.625 211.3125 C40.305 211.6425 38.985 211.9725 37.625 212.3125 C37.625 212.9725 37.625 213.6325 37.625 214.3125 C28.89224059 217.87029087 19.93119756 218.45918091 10.625 219.3125 C16.40502617 222.50104191 21.85363248 221.6571059 28.0625 220.1875 C39.16600849 216.90098435 47.67526999 209.07005722 53.625 199.3125 C53.13 198.3225 53.13 198.3225 52.625 197.3125 Z M-147.375 198.3125 C-146.385 199.7975 -146.385 199.7975 -145.375 201.3125 C-144.715 201.3125 -144.055 201.3125 -143.375 201.3125 C-143.375 200.6525 -143.375 199.9925 -143.375 199.3125 C-144.695 198.9825 -146.015 198.6525 -147.375 198.3125 Z M57.625 198.3125 C58.625 200.3125 58.625 200.3125 58.625 200.3125 Z M-103.375 199.3125 C-104.365 200.7975 -104.365 200.7975 -105.375 202.3125 C-104.385 201.9825 -103.395 201.6525 -102.375 201.3125 C-102.705 200.6525 -103.035 199.9925 -103.375 199.3125 Z M-89.375 199.3125 C-88.375 201.3125 -88.375 201.3125 -88.375 201.3125 Z M-96.375 200.3125 C-96.705 200.9725 -97.035 201.6325 -97.375 202.3125 C-96.715 202.3125 -96.055 202.3125 -95.375 202.3125 C-95.705 201.6525 -96.035 200.9925 -96.375 200.3125 Z M3.625 201.3125 C3.625 201.6425 3.625 201.9725 3.625 202.3125 C6.925 202.3125 10.225 202.3125 13.625 202.3125 C13.625 201.9825 13.625 201.6525 13.625 201.3125 C10.325 201.3125 7.025 201.3125 3.625 201.3125 Z M-110.4375 204.625 C-118.93521353 210.79241271 -127.90451424 211.189854 -138.0625 209.8125 C-139.2071875 209.565 -139.2071875 209.565 -140.375 209.3125 C-140.375 209.9725 -140.375 210.6325 -140.375 211.3125 C-132.9838715 213.64755626 -123.22783918 213.64902161 -115.91796875 211.11328125 C-111.43045464 208.72835072 -108.23810902 206.56098435 -105.375 202.3125 C-107.74857294 202.11163244 -107.74857294 202.11163244 -110.4375 204.625 Z M-98.375 202.3125 C-100.355 204.6225 -102.335 206.9325 -104.375 209.3125 C-101.14024552 207.69512276 -99.66927979 206.83620777 -97.375 204.3125 C-97.705 203.6525 -98.035 202.9925 -98.375 202.3125 Z M-85.375 202.3125 C-84.375 204.3125 -84.375 204.3125 -84.375 204.3125 Z M55.625 202.3125 C56.625 204.3125 56.625 204.3125 56.625 204.3125 Z M-149.375 204.3125 C-148.055 205.6325 -146.735 206.9525 -145.375 208.3125 C-144.715 207.9825 -144.055 207.6525 -143.375 207.3125 C-146.04747634 204.96962582 -146.04747634 204.96962582 -149.375 204.3125 Z M53.625 205.3125 C52.14 207.2925 52.14 207.2925 50.625 209.3125 C50.955 209.9725 51.285 210.6325 51.625 211.3125 C52.615 209.9925 53.605 208.6725 54.625 207.3125 C54.295 206.6525 53.965 205.9925 53.625 205.3125 Z M-94.375 206.3125 C-95.365 207.3025 -96.355 208.2925 -97.375 209.3125 C-97.045 209.9725 -96.715 210.6325 -96.375 211.3125 C-95.385 210.3225 -94.395 209.3325 -93.375 208.3125 C-93.705 207.6525 -94.035 206.9925 -94.375 206.3125 Z M58.625 207.3125 C59.625 209.3125 59.625 209.3125 59.625 209.3125 Z M-106.375 209.3125 C-106.375 209.9725 -106.375 210.6325 -106.375 211.3125 C-107.47521484 211.74175781 -107.47521484 211.74175781 -108.59765625 212.1796875 C-110.27303343 212.86303403 -111.93389262 213.58644737 -113.55859375 214.3828125 C-120.70798242 217.72828033 -127.56086347 218.13303204 -135.375 217.3125 C-137.04297996 216.649126 -138.7099192 215.98311774 -140.375 215.3125 C-141.365 215.6425 -142.355 215.9725 -143.375 216.3125 C-136.49357485 220.70896607 -128.18070255 220.97588147 -120.25 219.75 C-114.75462926 218.44963675 -109.79216045 215.81945769 -105.375 212.3125 C-105.045 211.3225 -104.715 210.3325 -104.375 209.3125 C-105.035 209.3125 -105.695 209.3125 -106.375 209.3125 Z M-90.375 209.3125 C-89.375 211.3125 -89.375 211.3125 -89.375 211.3125 Z M57.625 209.3125 C58.625 211.3125 58.625 211.3125 58.625 211.3125 Z M-149.375 211.3125 C-148.385 212.7975 -148.385 212.7975 -147.375 214.3125 C-146.715 213.9825 -146.055 213.6525 -145.375 213.3125 C-146.695 212.6525 -148.015 211.9925 -149.375 211.3125 Z M-99.375 211.3125 C-99.375 212.3025 -99.375 213.2925 -99.375 214.3125 C-98.715 213.3225 -98.055 212.3325 -97.375 211.3125 C-98.035 211.3125 -98.695 211.3125 -99.375 211.3125 Z M48.625 211.3125 C47.944375 212.034375 47.26375 212.75625 46.5625 213.5 C42.79163734 217.27086266 38.71340101 220.61636633 33.625 222.3125 C33.625 222.9725 33.625 223.6325 33.625 224.3125 C22.735 224.8075 22.735 224.8075 11.625 225.3125 C11.625 225.6425 11.625 225.9725 11.625 226.3125 C22.60471616 227.66060124 33.20386621 227.92262642 42.625 221.3125 C42.625 220.6525 42.625 219.9925 42.625 219.3125 C43.49125 218.9721875 43.49125 218.9721875 44.375 218.625 C47.1913661 216.98211977 48.70577114 214.91716773 50.625 212.3125 C49.965 211.9825 49.305 211.6525 48.625 211.3125 Z M55.625 212.3125 C56.625 214.3125 56.625 214.3125 56.625 214.3125 Z M-107.375 218.3125 C-108.035 218.6425 -108.695 218.9725 -109.375 219.3125 C-109.375 219.9725 -109.375 220.6325 -109.375 221.3125 C-110.096875 221.43625 -110.81875 221.56 -111.5625 221.6875 C-114.35320767 222.21378306 -114.35320767 222.21378306 -116.7331543 223.33935547 C-119.51898328 224.36553737 -121.50445401 224.54404044 -124.45703125 224.5078125 C-125.85405273 224.49814453 -125.85405273 224.49814453 -127.27929688 224.48828125 C-128.23900391 224.47152344 -129.19871094 224.45476562 -130.1875 224.4375 C-131.16654297 224.42847656 -132.14558594 224.41945312 -133.15429688 224.41015625 C-135.56145061 224.38667182 -137.96809743 224.3538284 -140.375 224.3125 C-133.5945649 228.83279006 -127.20415444 228.86076196 -119.375 227.3125 C-116.23207477 226.21702073 -113.31895799 224.85734924 -110.375 223.3125 C-109.04212899 222.64490949 -107.70892964 221.97797273 -106.375 221.3125 C-106.375 220.6525 -106.375 219.9925 -106.375 219.3125 C-105.75625 219.044375 -105.1375 218.77625 -104.5 218.5 C-102.0754767 217.35693152 -102.0754767 217.35693152 -100.375 214.3125 C-103.49741798 214.3125 -105.03188111 216.37942692 -107.375 218.3125 Z M-94.375 214.3125 C-94.375 215.3025 -94.375 216.2925 -94.375 217.3125 C-93.715 216.3225 -93.055 215.3325 -92.375 214.3125 C-93.035 214.3125 -93.695 214.3125 -94.375 214.3125 Z M-88.375 215.3125 C-87.375 217.3125 -87.375 217.3125 -87.375 217.3125 Z M59.625 215.3125 C60.625 217.3125 60.625 217.3125 60.625 217.3125 Z M-151.375 216.3125 C-151.375 216.9725 -151.375 217.6325 -151.375 218.3125 C-150.715 217.9825 -150.055 217.6525 -149.375 217.3125 C-150.035 216.9825 -150.695 216.6525 -151.375 216.3125 Z M52.625 216.3125 C51.08333358 217.68735532 51.08333358 217.68735532 49.625 219.3125 C49.625 219.9725 49.625 220.6325 49.625 221.3125 C48.635 221.6425 47.645 221.9725 46.625 222.3125 C46.625 222.9725 46.625 223.6325 46.625 224.3125 C45.965 224.56 45.305 224.8075 44.625 225.0625 C41.4813449 226.29503422 41.4813449 226.29503422 38.1875 228.3125 C32.42676817 231.28721316 25.98630231 231.63348458 19.625 232.3125 C19.625 232.6425 19.625 232.9725 19.625 233.3125 C32.03101957 233.71269418 40.10786085 231.75021922 49.625 223.3125 C50.99797556 221.67833548 52.34389851 220.01964221 53.625 218.3125 C53.13 217.3225 53.13 217.3225 52.625 216.3125 Z M58.625 217.3125 C58.00625 218.16521484 58.00625 218.16521484 57.375 219.03515625 C52.44414975 225.62796719 46.89893685 232.98545526 38.625 235.3125 C38.625 235.9725 38.625 236.6325 38.625 237.3125 C32.025 237.6425 25.425 237.9725 18.625 238.3125 C18.625 238.6425 18.625 238.9725 18.625 239.3125 C30.04316217 239.7893606 38.97555433 239.83412305 48.75 233.1875 C49.36875 232.56875 49.9875 231.95 50.625 231.3125 C50.625 230.6525 50.625 229.9925 50.625 229.3125 C51.615 228.9825 52.605 228.6525 53.625 228.3125 C55.2991769 226.22552442 55.2991769 226.22552442 56.8125 223.75 C57.34230469 222.92371094 57.87210938 222.09742188 58.41796875 221.24609375 C58.81628906 220.60800781 59.21460938 219.96992188 59.625 219.3125 C59.13 218.3225 59.13 218.3225 58.625 217.3125 Z M-84.375 218.3125 C-83.375 220.3125 -83.375 220.3125 -83.375 220.3125 Z M63.625 218.3125 C64.625 220.3125 64.625 220.3125 64.625 220.3125 Z M-148.375 219.3125 C-148.045 219.9725 -147.715 220.6325 -147.375 221.3125 C-146.715 220.9825 -146.055 220.6525 -145.375 220.3125 C-146.365 219.9825 -147.355 219.6525 -148.375 219.3125 Z M-99.375 219.3125 C-99.375 219.9725 -99.375 220.6325 -99.375 221.3125 C-100.365 221.6425 -101.355 221.9725 -102.375 222.3125 C-102.045 222.9725 -101.715 223.6325 -101.375 224.3125 C-99.3350281 222.94926257 -99.3350281 222.94926257 -97.375 221.3125 C-97.375 220.6525 -97.375 219.9925 -97.375 219.3125 C-98.035 219.3125 -98.695 219.3125 -99.375 219.3125 Z M-91.375 219.3125 C-90.375 221.3125 -90.375 221.3125 -90.375 221.3125 Z M-86.375 221.3125 C-85.375 223.3125 -85.375 223.3125 -85.375 223.3125 Z M-152.375 222.3125 C-151.375 224.3125 -151.375 224.3125 -151.375 224.3125 Z M-143.375 222.3125 C-143.045 222.9725 -142.715 223.6325 -142.375 224.3125 C-141.715 224.3125 -141.055 224.3125 -140.375 224.3125 C-140.375 223.6525 -140.375 222.9925 -140.375 222.3125 C-141.365 222.3125 -142.355 222.3125 -143.375 222.3125 Z M61.625 222.3125 C62.625 224.3125 62.625 224.3125 62.625 224.3125 Z M-94.375 223.3125 C-94.705 223.9725 -95.035 224.6325 -95.375 225.3125 C-94.715 225.3125 -94.055 225.3125 -93.375 225.3125 C-93.705 224.6525 -94.035 223.9925 -94.375 223.3125 Z M-108.625 227.1875 C-117.79827457 232.7654854 -127.63737326 232.99708239 -137.94921875 230.91796875 C-140.375 230.3125 -140.375 230.3125 -143.375 229.3125 C-143.375 229.9725 -143.375 230.6325 -143.375 231.3125 C-133.89297884 235.58870562 -124.63525523 237.10185979 -114.62109375 233.37109375 C-107.43376611 230.02949031 -107.43376611 230.02949031 -102.375 224.3125 C-105.1628817 224.3125 -106.33925307 225.60564203 -108.625 227.1875 Z M60.625 224.3125 C59.58008577 225.64817298 58.56496121 227.00717707 57.5625 228.375 C49.2524475 239.16617247 40.99055927 243.25811928 27.625 245.3125 C27.625 245.6425 27.625 245.9725 27.625 246.3125 C37.77747852 246.13989217 44.63788412 244.71971869 52.3125 237.9375 C53.075625 237.07125 53.83875 236.205 54.625 235.3125 C55.15222656 234.74144531 55.67945313 234.17039063 56.22265625 233.58203125 C59.92096674 229.48575567 59.92096674 229.48575567 61.625 224.3125 C61.295 224.3125 60.965 224.3125 60.625 224.3125 Z M-89.375 225.3125 C-88.375 227.3125 -88.375 227.3125 -88.375 227.3125 Z M-97.375 226.3125 C-98.365 227.7975 -98.365 227.7975 -99.375 229.3125 C-98.385 228.9825 -97.395 228.6525 -96.375 228.3125 C-96.705 227.6525 -97.035 226.9925 -97.375 226.3125 Z M-147.375 227.3125 C-147.045 227.9725 -146.715 228.6325 -146.375 229.3125 C-145.385 228.9825 -144.395 228.6525 -143.375 228.3125 C-144.695 227.9825 -146.015 227.6525 -147.375 227.3125 Z M64.625 227.3125 C65.625 229.3125 65.625 229.3125 65.625 229.3125 Z M-100.375 229.3125 C-100.99246094 229.78300781 -101.60992187 230.25351563 -102.24609375 230.73828125 C-113.3087371 238.87109211 -122.7435006 240.86930279 -136.49609375 238.85546875 C-138.8091398 238.39942137 -141.09259954 237.90150657 -143.375 237.3125 C-138.68393336 242.00356664 -132.05592182 242.53027519 -125.6875 242.625 C-115.14030419 242.58636558 -107.41866243 237.62085454 -99.375 231.3125 C-99.87 230.3225 -99.87 230.3225 -100.375 229.3125 Z M-92.375 229.3125 C-93.365 230.7975 -93.365 230.7975 -94.375 232.3125 C-93.385 231.9825 -92.395 231.6525 -91.375 231.3125 C-91.705 230.6525 -92.035 229.9925 -92.375 229.3125 Z M63.625 229.3125 C64.625 231.3125 64.625 231.3125 64.625 231.3125 Z M12.625 231.3125 C16.625 232.3125 16.625 232.3125 16.625 232.3125 Z M-149.375 232.3125 C-149.375 232.9725 -149.375 233.6325 -149.375 234.3125 C-148.715 233.9825 -148.055 233.6525 -147.375 233.3125 C-148.035 232.9825 -148.695 232.6525 -149.375 232.3125 Z M-95.375 232.3125 C-95.97828125 232.86679688 -96.5815625 233.42109375 -97.203125 233.9921875 C-98.40195313 235.07886719 -98.40195313 235.07886719 -99.625 236.1875 C-100.41390625 236.90679687 -101.2028125 237.62609375 -102.015625 238.3671875 C-104.09526168 240.08185483 -105.91919267 241.24230873 -108.375 242.3125 C-108.375 242.9725 -108.375 243.6325 -108.375 244.3125 C-109.344375 244.456875 -110.31375 244.60125 -111.3125 244.75 C-114.23986773 244.98812341 -114.23986773 244.98812341 -115.375 246.3125 C-124.19017784 247.3759933 -132.29761659 248.3511917 -140.375 244.3125 C-141.365 244.6425 -142.355 244.9725 -143.375 245.3125 C-134.16373226 250.50859975 -125.35867558 251.15275798 -115.12109375 248.79296875 C-113.52559249 248.3449391 -111.94717027 247.83655676 -110.375 247.3125 C-110.375 246.6525 -110.375 245.9925 -110.375 245.3125 C-108.725 244.9825 -107.075 244.6525 -105.375 244.3125 C-105.375 243.6525 -105.375 242.9925 -105.375 242.3125 C-104.055 241.9825 -102.735 241.6525 -101.375 241.3125 C-101.375 240.6525 -101.375 239.9925 -101.375 239.3125 C-100.776875 239.044375 -100.17875 238.77625 -99.5625 238.5 C-97.40275192 237.32756533 -96.01709744 236.11880718 -94.375 234.3125 C-94.87 233.3225 -94.87 233.3225 -95.375 232.3125 Z M61.625 232.3125 C62.625 234.3125 62.625 234.3125 62.625 234.3125 Z M-147.375 234.3125 C-146.385 235.7975 -146.385 235.7975 -145.375 237.3125 C-144.715 237.3125 -144.055 237.3125 -143.375 237.3125 C-143.375 236.6525 -143.375 235.9925 -143.375 235.3125 C-144.695 234.9825 -146.015 234.6525 -147.375 234.3125 Z M60.625 234.3125 C60.625 237.3125 60.625 237.3125 60.625 237.3125 Z M58.625 237.3125 C58.01914063 237.91578125 57.41328125 238.5190625 56.7890625 239.140625 C47.00458918 248.47350724 39.03315032 250.89218181 25.625 251.3125 C25.625 251.6425 25.625 251.9725 25.625 252.3125 C36.2125126 252.8207006 44.49039494 252.44669037 53.5 246.375 C55.77551376 244.16641311 57.7233679 241.84800947 59.625 239.3125 C59.13 238.3225 59.13 238.3225 58.625 237.3125 Z M-147.375 241.3125 C-146.385 242.7975 -146.385 242.7975 -145.375 244.3125 C-144.715 243.9825 -144.055 243.6525 -143.375 243.3125 C-144.695 242.6525 -146.015 241.9925 -147.375 241.3125 Z M19.625 244.3125 C19.625 244.6425 19.625 244.9725 19.625 245.3125 C21.605 245.3125 23.585 245.3125 25.625 245.3125 C25.625 244.9825 25.625 244.6525 25.625 244.3125 C23.645 244.3125 21.665 244.3125 19.625 244.3125 Z " fill="#41969F" transform="translate(178.375,-0.3125)"/>
<path d="M0 0 C1.50433594 -0.02416992 1.50433594 -0.02416992 3.0390625 -0.04882812 C11.4324912 -0.05432121 17.58214359 1.59417212 24.625 6.375 C25.388125 6.88160156 26.15125 7.38820313 26.9375 7.91015625 C27.494375 8.37292969 28.05125 8.83570313 28.625 9.3125 C28.625 9.9725 28.625 10.6325 28.625 11.3125 C30.605 12.3025 30.605 12.3025 32.625 13.3125 C32.625 13.9725 32.625 14.6325 32.625 15.3125 C33.285 15.3125 33.945 15.3125 34.625 15.3125 C43.74262721 26.32421677 49.60467358 39.02164334 53.3984375 52.71484375 C53.77851707 54.06690163 53.77851707 54.06690163 54.16627502 55.4462738 C54.99306208 58.39973173 55.81043378 61.35564927 56.625 64.3125 C56.90642853 65.33241028 57.18785706 66.35232056 57.47781372 67.40313721 C59.2381819 73.79974042 60.97205489 80.20307371 62.68676758 86.61206055 C63.27905211 88.81888598 63.8755229 91.02459144 64.47583008 93.22924805 C65.3564191 96.46422417 66.22453022 99.70231549 67.08984375 102.94140625 C67.36054184 103.92669815 67.63123993 104.91199005 67.91014099 105.92713928 C68.15112015 106.84007248 68.3920993 107.75300568 68.64038086 108.69360352 C68.85544785 109.4918605 69.07051483 110.29011749 69.292099 111.11256409 C69.65279 113.49614684 69.37079084 115.03966285 68.625 117.3125 C68.36807373 116.70776855 68.11114746 116.10303711 67.84643555 115.47998047 C66.67040093 112.71498888 65.49147582 109.95123868 64.3125 107.1875 C63.90837891 106.23617187 63.50425781 105.28484375 63.08789062 104.3046875 C61.06340726 99.56443377 59.00408796 94.88589238 56.625 90.3125 C55.305 90.6425 53.985 90.9725 52.625 91.3125 C52.00625 89.7346875 52.00625 89.7346875 51.375 88.125 C49.93279171 84.71614404 47.98934574 82.16602072 45.625 79.3125 C45.625 78.6525 45.625 77.9925 45.625 77.3125 C44.635 76.9825 43.645 76.6525 42.625 76.3125 C42.625 75.6525 42.625 74.9925 42.625 74.3125 C42.03589844 74.02632813 41.44679687 73.74015625 40.83984375 73.4453125 C38.625 72.3125 38.625 72.3125 36.94140625 71.2421875 C30.80044085 67.54940207 24.62838526 67.33908975 17.625 68.3125 C-5.68856559 76.15597865 -21.00572279 108.96106526 -31.375 129.3125 C-33.37728094 133.39124967 -35.31129756 137.50061182 -37.22753906 141.62036133 C-39.4783289 146.4552586 -41.80465048 151.23030625 -44.3125 155.9375 C-44.85777344 156.96101562 -45.40304688 157.98453125 -45.96484375 159.0390625 C-47.375 161.3125 -47.375 161.3125 -49.375 162.3125 C-52 161.375 -52 161.375 -54.375 160.3125 C-54.375 159.6525 -54.375 158.9925 -54.375 158.3125 C-56.0765625 158.126875 -56.0765625 158.126875 -57.8125 157.9375 C-58.988125 157.73125 -60.16375 157.525 -61.375 157.3125 C-61.705 156.6525 -62.035 155.9925 -62.375 155.3125 C-65.00081138 153.73701317 -66.24599787 153.3125 -69.375 153.3125 C-69.375 152.3225 -69.375 151.3325 -69.375 150.3125 C-72.015 149.9825 -74.655 149.6525 -77.375 149.3125 C-77.375 148.3225 -77.375 147.3325 -77.375 146.3125 C-77.9525 146.168125 -78.53 146.02375 -79.125 145.875 C-81.20833333 145.35416667 -83.29166667 144.83333333 -85.375 144.3125 C-85.375 143.6525 -85.375 142.9925 -85.375 142.3125 C-85.9525 142.168125 -86.53 142.02375 -87.125 141.875 C-87.8675 141.689375 -88.61 141.50375 -89.375 141.3125 C-90.096875 141.168125 -90.81875 141.02375 -91.5625 140.875 C-92.160625 140.689375 -92.75875 140.50375 -93.375 140.3125 C-93.705 139.6525 -94.035 138.9925 -94.375 138.3125 C-95.365 138.3125 -96.355 138.3125 -97.375 138.3125 C-97.375 137.6525 -97.375 136.9925 -97.375 136.3125 C-99.025 135.9825 -100.675 135.6525 -102.375 135.3125 C-102.375 134.6525 -102.375 133.9925 -102.375 133.3125 C-104.025 132.9825 -105.675 132.6525 -107.375 132.3125 C-106.33849647 128.99568869 -104.86133868 126.52052135 -102.75 123.8125 C-93.19638703 111.41362215 -85.58710659 96.96663924 -78.6875 82.9375 C-69.45372516 64.24744973 -59.70551891 46.15716007 -47.375 29.3125 C-46.56482422 28.17603027 -46.56482422 28.17603027 -45.73828125 27.01660156 C-45.20589844 26.28151367 -44.67351562 25.54642578 -44.125 24.7890625 C-43.64546875 24.12213379 -43.1659375 23.45520508 -42.671875 22.76806641 C-42.24390625 22.28772949 -41.8159375 21.80739258 -41.375 21.3125 C-40.715 21.3125 -40.055 21.3125 -39.375 21.3125 C-39.11589844 20.71566406 -38.85679687 20.11882813 -38.58984375 19.50390625 C-37.28486856 17.14991563 -36.02025787 15.92964344 -33.9375 14.25 C-32.18770768 12.8252231 -30.51048712 11.45468703 -28.953125 9.8203125 C-26.98828595 7.94301578 -24.89113935 6.64861442 -22.5625 5.25 C-21.73105469 4.74339844 -20.89960938 4.23679687 -20.04296875 3.71484375 C-13.33494316 0.18895622 -7.44256816 -0.02373268 0 0 Z M-102.375 131.3125 C-101.375 133.3125 -101.375 133.3125 -101.375 133.3125 Z " fill="#426AA4" transform="translate(178.375,-0.3125)"/>
<path d="M0 0 C0 0.99 0 1.98 0 3 C-1.093125 3.103125 -2.18625 3.20625 -3.3125 3.3125 C-6.83108458 3.76359783 -6.83108458 3.76359783 -9 5.125 C-10.71080646 8.33276211 -9.927984 10.57805899 -9 14 C-5.90170122 18.73857461 -2.58550286 21.81579445 3 23 C10.99701131 23.74390803 17.57409437 23.02070737 25 20 C25 19.34 25 18.68 25 18 C26.98 17.67 28.96 17.34 31 17 C31 18.32 31 19.64 31 21 C30.34 21 29.68 21 29 21 C29 21.66 29 22.32 29 23 C22.17972926 28.42124085 14.6549416 30.69797916 6 30 C3.59292476 29.46458593 1.34501805 28.78167268 -1 28 C1.91824244 29.66674321 3.97594379 30.2432008 7.328125 30.1953125 C8.12734375 30.18886719 8.9265625 30.18242187 9.75 30.17578125 C10.575 30.15902344 11.4 30.14226562 12.25 30.125 C13.09046875 30.11597656 13.9309375 30.10695312 14.796875 30.09765625 C16.86470604 30.07415817 18.93238995 30.03828908 21 30 C21 29.34 21 28.68 21 28 C22.65 27.67 24.3 27.34 26 27 C26 26.34 26 25.68 26 25 C31.29411765 21 31.29411765 21 35 21 C35 22.65 35 24.3 35 26 C36.32 25.67 37.64 25.34 39 25 C39.495 26.98 39.495 26.98 40 29 C40.99 29 41.98 29 43 29 C42.67 30.98 42.34 32.96 42 35 C42.99 34.01 42.99 34.01 44 33 C44.99 33 45.98 33 47 33 C47.33 33.99 47.66 34.98 48 36 C49.485 36.495 49.485 36.495 51 37 C53.36506843 39.00121175 53.9893322 39.96799661 55 43 C56.485 43.495 56.485 43.495 58 44 C58 44.66 58 45.32 58 46 C58.66 46 59.32 46 60 46 C60.495 47.98 60.495 47.98 61 50 C61.99 50 62.98 50 64 50 C64 51.32 64 52.64 64 54 C64.99 54 65.98 54 67 54 C67.33 54.99 67.66 55.98 68 57 C69.485 57.495 69.485 57.495 71 58 C71 58.66 71 59.32 71 60 C71.99 60 72.98 60 74 60 C74.33 60.99 74.66 61.98 75 63 C75.66 63 76.32 63 77 63 C77 63.99 77 64.98 77 66 C77.99 66 78.98 66 80 66 C80.54949827 71.68110307 78.80206061 75.12464542 76.125 79.9375 C75.72224854 80.67822754 75.31949707 81.41895508 74.90454102 82.18212891 C70.71082956 89.75875145 65.96465492 96.91287864 61 104 C60.27425781 105.05703125 59.54851562 106.1140625 58.80078125 107.203125 C55.24459244 112.26984735 51.93147403 116.2739974 47 120 C46.13375 120.9075 45.2675 121.815 44.375 122.75 C42.09795733 124.90719832 41.05256297 125.66082634 38 126 C38 126.66 38 127.32 38 128 C36.60721983 128.65239158 35.21060788 129.29660552 33.8125 129.9375 C33.03519531 130.29714844 32.25789063 130.65679687 31.45703125 131.02734375 C22.4086224 134.60930528 11.85183441 133.87036307 2.9765625 130.15234375 C-4.42012706 126.65237762 -10.41580942 122.22494586 -15.4375 115.75 C-15.90559082 115.14647705 -16.37368164 114.5429541 -16.85595703 113.92114258 C-28.23146896 98.66116732 -35.0529572 78.56830538 -35.23828125 59.59375 C-35.246353 58.79199341 -35.25442474 57.99023682 -35.26274109 57.16418457 C-35.27652227 55.46982951 -35.28727088 53.77544739 -35.29516602 52.08105469 C-35.30662638 50.37458973 -35.3269828 48.66815892 -35.35668945 46.96191406 C-35.72608908 25.68944825 -35.72608908 25.68944825 -31 16 C-28.9230957 14.77539062 -28.9230957 14.77539062 -27 14 C-26.28752268 12.3523962 -25.62599617 10.68236471 -25 9 C-19.21521125 0.21569115 -9.85665425 -3.28555142 0 0 Z M28.375 29.8125 C21.04921205 35.37589013 14.21551209 37.06067927 5 36 C4.12730469 35.64292969 3.25460938 35.28585938 2.35546875 34.91796875 C-0.0913564 33.67538189 -0.0913564 33.67538189 -3 35 C1.61064953 37.69193202 5.48146311 38.54541842 10.75 38.5 C11.44867188 38.49935547 12.14734375 38.49871094 12.8671875 38.49804688 C19.08112968 38.32034189 23.82859433 36.48075382 29 33 C29 32.34 29 31.68 29 31 C29.639375 30.71125 30.27875 30.4225 30.9375 30.125 C33.15206079 29.17176549 33.15206079 29.17176549 34 27 C31.27728158 27 30.46532679 28.10109699 28.375 29.8125 Z M36 31 C36.33 31.66 36.66 32.32 37 33 C37.33 32.34 37.66 31.68 38 31 C37.34 31 36.68 31 36 31 Z M33 34 C31.36323743 35.9600281 31.36323743 35.9600281 30 38 C33.12197478 36.6910428 33.12197478 36.6910428 35 34 C34.34 34 33.68 34 33 34 Z M22 41 C22 41.66 22 42.32 22 43 C14.74 43 7.48 43 0 43 C5.82747538 46.88498359 11.10248089 46.48178248 18 46 C20.91335207 45.25763473 23.26632136 44.28643701 26 43 C26 42.34 26 41.68 26 41 C27.32 40.67 28.64 40.34 30 40 C30 39.34 30 38.68 30 38 C26.91990121 38 24.68864864 39.5972268 22 41 Z M38 38 C37.01 39.485 37.01 39.485 36 41 C36.99 40.67 37.98 40.34 39 40 C38.67 39.34 38.34 38.68 38 38 Z M45 38 C44.01 38.99 43.02 39.98 42 41 C42.33 41.66 42.66 42.32 43 43 C43.99 42.01 44.98 41.02 46 40 C45.67 39.34 45.34 38.68 45 38 Z M-3 41 C-2.67 41.66 -2.34 42.32 -2 43 C-1.34 42.67 -0.68 42.34 0 42 C-0.99 41.67 -1.98 41.34 -3 41 Z M34 41 C34 41.66 34 42.32 34 43 C33.2265625 43.37125 33.2265625 43.37125 32.4375 43.75 C29.81593523 45.09439219 27.30432796 46.57807521 24.78125 48.09765625 C21.39433619 49.81339548 18.21316428 50.12306192 14.453125 50.09765625 C13.60878906 50.09443359 12.76445313 50.09121094 11.89453125 50.08789062 C11.02183594 50.07951172 10.14914063 50.07113281 9.25 50.0625 C7.91775391 50.05573242 7.91775391 50.05573242 6.55859375 50.04882812 C4.37232671 50.037074 2.18619821 50.02064249 0 50 C4.5589594 53.96106308 9.14123808 54 15 54 C23.06142732 52.49702202 30.08884997 48.61559253 36 43 C36 42.34 36 41.68 36 41 C35.34 41 34.68 41 34 41 Z M49 41 C50 43 50 43 50 43 Z M39 45 C38.01 46.485 38.01 46.485 37 48 C37.99 47.67 38.98 47.34 40 47 C39.67 46.34 39.34 45.68 39 45 Z M-3 48 C-3 48.66 -3 49.32 -3 50 C-2.01 49.67 -1.02 49.34 0 49 C-0.99 48.67 -1.98 48.34 -3 48 Z M36 48 C33.9600281 49.36323743 33.9600281 49.36323743 32 51 C32 51.66 32 52.32 32 53 C32.66 53 33.32 53 34 53 C34 52.34 34 51.68 34 51 C34.99 50.67 35.98 50.34 37 50 C36.67 49.34 36.34 48.68 36 48 Z M41 51 C42 53 42 53 42 53 Z M48 51 C49 53 49 53 49 53 Z M54 51 C55 53 55 53 55 53 Z M39 53 C39 53.99 39 54.98 39 56 C39.66 55.01 40.32 54.02 41 53 C40.34 53 39.68 53 39 53 Z M-5 54 C-4.01 55.485 -4.01 55.485 -3 57 C-2.01 56.67 -1.02 56.34 0 56 C-2.475 55.01 -2.475 55.01 -5 54 Z M52 54 C53 56 53 56 53 56 Z M45 55 C44.34 56.32 43.68 57.64 43 59 C43.99 58.34 44.98 57.68 46 57 C45.67 56.34 45.34 55.68 45 55 Z M33.9375 57.6875 C32.968125 58.450625 31.99875 59.21375 31 60 C30.44054687 60.45503906 29.88109375 60.91007812 29.3046875 61.37890625 C21.86214175 66.50112891 12.692099 65.85375584 4 65 C2.66052683 64.69226552 1.32481246 64.36573329 0 64 C0 64.66 0 65.32 0 66 C9.36563813 68.70162638 16.86225168 69.95213908 26 66 C30.78419007 63.25328171 34.91684694 60.62472959 38 56 C35.81383982 55.78892074 35.81383982 55.78892074 33.9375 57.6875 Z M25.5625 54.9375 C17.10581316 58.82451092 9.07955005 58.61414223 0 57 C2.45251874 59.96883848 4.19484037 60.59519578 8 61 C15.454036 61.66317046 21.37874976 60.57644174 28 57 C30.55062666 54.96169749 30.55062666 54.96169749 32 53 C29.44248328 53 27.88170221 53.86739192 25.5625 54.9375 Z M40 60 C40 60.99 40 61.98 40 63 C40.66 62.01 41.32 61.02 42 60 C41.34 60 40.68 60 40 60 Z M-5 61 C-4.01 62.485 -4.01 62.485 -3 64 C-2.01 63.67 -1.02 63.34 0 63 C-2.475 62.01 -2.475 62.01 -5 61 Z M47 61 C46.01 61.99 45.02 62.98 44 64 C44.33 64.66 44.66 65.32 45 66 C45.99 65.01 46.98 64.02 48 63 C47.67 62.34 47.34 61.68 47 61 Z M33.25 65.8125 C25.31600095 71.80896274 17.65097494 74.01682325 7.58984375 72.6796875 C5.69917868 72.22068211 3.84574384 71.61524795 2 71 C0.845 70.62875 -0.31 70.2575 -1.5 69.875 C-2.7375 69.441875 -2.7375 69.441875 -4 69 C0.01277515 73.84876998 4.78628156 75.6370903 10.87109375 76.32421875 C20.4324808 76.67744197 27.44253107 73.79991802 35 68 C37.32277416 65.3908613 37.32277416 65.3908613 39 63 C36.26648032 63 35.37174636 64.12250435 33.25 65.8125 Z M-9 64 C-8 66 -8 66 -8 66 Z M51 64 C52 66 52 66 52 66 Z M57 64 C58 66 58 66 58 66 Z M55 67 C56 69 56 69 56 69 Z M41 68 C40.67 68.66 40.34 69.32 40 70 C40.66 70 41.32 70 42 70 C41.67 69.34 41.34 68.68 41 68 Z M38 70 C37.67 70.99 37.34 71.98 37 73 C37.66 73 38.32 73 39 73 C39.33 72.01 39.66 71.02 40 70 C39.34 70 38.68 70 38 70 Z M46 70 C46.33 70.66 46.66 71.32 47 72 C47.33 71.34 47.66 70.68 48 70 C47.34 70 46.68 70 46 70 Z M33 74 C33 74.66 33 75.32 33 76 C31.35 76.33 29.7 76.66 28 77 C28 77.66 28 78.32 28 79 C18.47823545 80.22861478 9.52176455 80.22861478 0 79 C6.94643731 83.6309582 13.79070097 84.24977388 22 83 C28.12101527 80.92370848 33.3968603 78.52481421 37 73 C34.9254644 72.8509288 34.9254644 72.8509288 33 74 Z M-6 74 C-6 74.66 -6 75.32 -6 76 C-5.34 75.67 -4.68 75.34 -4 75 C-4.66 74.67 -5.32 74.34 -6 74 Z M43 74 C42.01 75.485 42.01 75.485 41 77 C41.99 76.67 42.98 76.34 44 76 C43.67 75.34 43.34 74.68 43 74 Z M50 74 C51 76 51 76 51 76 Z M-4 76 C-3.01 77.485 -3.01 77.485 -2 79 C-1.34 79 -0.68 79 0 79 C0 78.34 0 77.68 0 77 C-1.32 76.67 -2.64 76.34 -4 76 Z M40 77 C39.01 78.485 39.01 78.485 38 80 C38.99 79.67 39.98 79.34 41 79 C40.67 78.34 40.34 77.68 40 77 Z M54 77 C55 79 55 79 55 79 Z M47 78 C46.67 78.66 46.34 79.32 46 80 C46.66 80 47.32 80 48 80 C47.67 79.34 47.34 78.68 47 78 Z M32.9375 82.3125 C24.43978647 88.47991271 15.47048576 88.877354 5.3125 87.5 C4.1678125 87.2525 4.1678125 87.2525 3 87 C3 87.66 3 88.32 3 89 C10.3911285 91.33505626 20.14716082 91.33652161 27.45703125 88.80078125 C31.94454536 86.41585072 35.13689098 84.24848435 38 80 C35.62642706 79.79913244 35.62642706 79.79913244 32.9375 82.3125 Z M45 80 C43.02 82.31 41.04 84.62 39 87 C42.23475448 85.38262276 43.70572021 84.52370777 46 82 C45.67 81.34 45.34 80.68 45 80 Z M58 80 C59 82 59 82 59 82 Z M-6 82 C-4.68 83.32 -3.36 84.64 -2 86 C-1.34 85.67 -0.68 85.34 0 85 C-2.67247634 82.65712582 -2.67247634 82.65712582 -6 82 Z M49 84 C48.01 84.99 47.02 85.98 46 87 C46.33 87.66 46.66 88.32 47 89 C47.99 88.01 48.98 87.02 50 86 C49.67 85.34 49.34 84.68 49 84 Z M37 87 C37 87.66 37 88.32 37 89 C35.89978516 89.42925781 35.89978516 89.42925781 34.77734375 89.8671875 C33.10196657 90.55053403 31.44110738 91.27394737 29.81640625 92.0703125 C22.66701758 95.41578033 15.81413653 95.82053204 8 95 C6.33202004 94.336626 4.6650808 93.67061774 3 93 C2.01 93.33 1.02 93.66 0 94 C6.88142515 98.39646607 15.19429745 98.66338147 23.125 97.4375 C28.62037074 96.13713675 33.58283955 93.50695769 38 90 C38.33 89.01 38.66 88.02 39 87 C38.34 87 37.68 87 37 87 Z M53 87 C54 89 54 89 54 89 Z M-6 89 C-5.01 90.485 -5.01 90.485 -4 92 C-3.34 91.67 -2.68 91.34 -2 91 C-3.32 90.34 -4.64 89.68 -6 89 Z M44 89 C44 89.99 44 90.98 44 92 C44.66 91.01 45.32 90.02 46 89 C45.34 89 44.68 89 44 89 Z M36 96 C35.34 96.33 34.68 96.66 34 97 C34 97.66 34 98.32 34 99 C33.278125 99.12375 32.55625 99.2475 31.8125 99.375 C29.02179233 99.90128306 29.02179233 99.90128306 26.6418457 101.02685547 C23.85601672 102.05303737 21.87054599 102.23154044 18.91796875 102.1953125 C17.52094727 102.18564453 17.52094727 102.18564453 16.09570312 102.17578125 C15.13599609 102.15902344 14.17628906 102.14226562 13.1875 102.125 C12.20845703 102.11597656 11.22941406 102.10695313 10.22070312 102.09765625 C7.81354939 102.07417182 5.40690257 102.0413284 3 102 C9.7804351 106.52029006 16.17084556 106.54826196 24 105 C27.14292523 103.90452073 30.05604201 102.54484924 33 101 C34.33287101 100.33240949 35.66607036 99.66547273 37 99 C37 98.34 37 97.68 37 97 C37.61875 96.731875 38.2375 96.46375 38.875 96.1875 C41.2995233 95.04443152 41.2995233 95.04443152 43 92 C39.87758202 92 38.34311889 94.06692692 36 96 Z M49 92 C49 92.99 49 93.98 49 95 C49.66 94.01 50.32 93.02 51 92 C50.34 92 49.68 92 49 92 Z M55 93 C56 95 56 95 56 95 Z M-8 94 C-8 94.66 -8 95.32 -8 96 C-7.34 95.67 -6.68 95.34 -6 95 C-6.66 94.67 -7.32 94.34 -8 94 Z M59 96 C60 98 60 98 60 98 Z M-5 97 C-4.67 97.66 -4.34 98.32 -4 99 C-3.34 98.67 -2.68 98.34 -2 98 C-2.99 97.67 -3.98 97.34 -5 97 Z M44 97 C44 97.66 44 98.32 44 99 C43.01 99.33 42.02 99.66 41 100 C41.33 100.66 41.66 101.32 42 102 C44.0399719 100.63676257 44.0399719 100.63676257 46 99 C46 98.34 46 97.68 46 97 C45.34 97 44.68 97 44 97 Z M52 97 C53 99 53 99 53 99 Z M57 99 C58 101 58 101 58 101 Z M-9 100 C-8 102 -8 102 -8 102 Z M0 100 C0.33 100.66 0.66 101.32 1 102 C1.66 102 2.32 102 3 102 C3 101.34 3 100.68 3 100 C2.01 100 1.02 100 0 100 Z M49 101 C48.67 101.66 48.34 102.32 48 103 C48.66 103 49.32 103 50 103 C49.67 102.34 49.34 101.68 49 101 Z M34.75 104.875 C25.57672543 110.4529854 15.73762674 110.68458239 5.42578125 108.60546875 C3 108 3 108 0 107 C0 107.66 0 108.32 0 109 C9.48202116 113.27620562 18.73974477 114.78935979 28.75390625 111.05859375 C35.94123389 107.71699031 35.94123389 107.71699031 41 102 C38.2121183 102 37.03574693 103.29314203 34.75 104.875 Z M54 103 C55 105 55 105 55 105 Z M46 104 C45.01 105.485 45.01 105.485 44 107 C44.99 106.67 45.98 106.34 47 106 C46.67 105.34 46.34 104.68 46 104 Z M-4 105 C-3.67 105.66 -3.34 106.32 -3 107 C-2.01 106.67 -1.02 106.34 0 106 C-1.32 105.67 -2.64 105.34 -4 105 Z M43 107 C42.38253906 107.47050781 41.76507813 107.94101563 41.12890625 108.42578125 C30.0662629 116.55859211 20.6314994 118.55680279 6.87890625 116.54296875 C4.5658602 116.08692137 2.28240046 115.58900657 0 115 C4.69106664 119.69106664 11.31907818 120.21777519 17.6875 120.3125 C28.23469581 120.27386558 35.95633757 115.30835454 44 109 C43.505 108.01 43.505 108.01 43 107 Z M51 107 C50.01 108.485 50.01 108.485 49 110 C49.99 109.67 50.98 109.34 52 109 C51.67 108.34 51.34 107.68 51 107 Z M-6 110 C-6 110.66 -6 111.32 -6 112 C-5.34 111.67 -4.68 111.34 -4 111 C-4.66 110.67 -5.32 110.34 -6 110 Z M48 110 C47.39671875 110.55429688 46.7934375 111.10859375 46.171875 111.6796875 C44.97304687 112.76636719 44.97304687 112.76636719 43.75 113.875 C42.96109375 114.59429687 42.1721875 115.31359375 41.359375 116.0546875 C39.27973832 117.76935483 37.45580733 118.92980873 35 120 C35 120.66 35 121.32 35 122 C34.030625 122.144375 33.06125 122.28875 32.0625 122.4375 C29.13513227 122.67562341 29.13513227 122.67562341 28 124 C19.18482216 125.0634933 11.07738341 126.0386917 3 122 C2.01 122.33 1.02 122.66 0 123 C9.21126774 128.19609975 18.01632442 128.84025798 28.25390625 126.48046875 C29.84940751 126.0324391 31.42782973 125.52405676 33 125 C33 124.34 33 123.68 33 123 C34.65 122.67 36.3 122.34 38 122 C38 121.34 38 120.68 38 120 C39.32 119.67 40.64 119.34 42 119 C42 118.34 42 117.68 42 117 C42.598125 116.731875 43.19625 116.46375 43.8125 116.1875 C45.97224808 115.01506533 47.35790256 113.80630718 49 112 C48.505 111.01 48.505 111.01 48 110 Z M-4 112 C-3.01 113.485 -3.01 113.485 -2 115 C-1.34 115 -0.68 115 0 115 C0 114.34 0 113.68 0 113 C-1.32 112.67 -2.64 112.34 -4 112 Z M-4 119 C-3.01 120.485 -3.01 120.485 -2 122 C-1.34 121.67 -0.68 121.34 0 121 C-1.32 120.34 -2.64 119.68 -4 119 Z " fill="#5A5B98" transform="translate(35,122)"/>
<path d="M0 0 C-0.33 0.99 -0.66 1.98 -1 3 C-1.33 2.67 -1.66 2.34 -2 2 C-7.87289289 1.66971428 -12.74262077 2.17456012 -17.3125 6.0625 C-20.98205366 9.7170145 -24.03920727 13.7640576 -27 18 C-27.99589042 19.33640565 -28.99481954 20.67056778 -30 22 C-29.16204743 15.2963794 -25.67692207 8.81054841 -21 4 C-13.98009212 -0.92595003 -8.24707355 -2.74902452 0 0 Z " fill="#3E5495" transform="translate(35,122)"/>
<path d="M0 0 C0.99 0.33 1.98 0.66 3 1 C2.49210937 1.4125 1.98421875 1.825 1.4609375 2.25 C-3.48882336 6.40260836 -7.30873399 10.7189852 -11 16 C-11.99589042 17.33640565 -12.99481954 18.67056778 -14 20 C-13.22639655 14.73949651 -11.70713351 10.48251068 -7.625 6.9375 C-6.75875 6.298125 -5.8925 5.65875 -5 5 C-3.31471312 3.35216394 -1.64302953 1.68997323 0 0 Z " fill="#3F4480" transform="translate(19,124)"/>
<path d="M0 0 C0.66 0.33 1.32 0.66 2 1 C1.65066406 1.72445312 1.30132812 2.44890625 0.94140625 3.1953125 C-2.46045991 10.30984218 -2.46045991 10.30984218 -4 18 C-4.66 18 -5.32 18 -6 18 C-3.52427184 3.52427184 -3.52427184 3.52427184 0 0 Z " fill="#3C64AA" transform="translate(6,136)"/>
</svg>
